<svg xmlns="http://www.w3.org/2000/svg" width="56" height="56" viewBox="0 0 56 56">
  <g id="Group_33" data-name="Group 33" transform="translate(-2478.947 -2657.881)">
    <path id="Path_119" data-name="Path 119" d="M2524.812,2732.881c-5.549-1.371-11.09-2.768-16.654-4.091-5.368-1.276-5.276-1.245-5.745-6.077-.956-9.844-2.041-19.679-3.064-29.518-.467-4.5-.922-8.993-1.39-13.583a2.649,2.649,0,0,1,2.82-2.73h50.337a2.65,2.65,0,0,1,2.821,2.72c-.235,2.423-.468,4.825-.715,7.226q-1.338,12.972-2.7,25.943c-.479,4.608-.913,9.221-1.482,13.821-.057.459-.831,1.079-1.4,1.221-6.9,1.71-13.824,3.342-20.74,5l-.01,0Zm-14.327-23.812c.287,3.088.535,6.081.891,9.063.035.289.7.625,1.142.751,2.068.588,4.237.949,6.229,1.689a19.213,19.213,0,0,0,14.246.036,28.984,28.984,0,0,1,3.372-.9c3.944-1.016,4-1.01,4.392-4.58.558-5.111,1.022-10.23,1.544-15.532h-15.347a3.275,3.275,0,0,1,1.455-.917c4.375-1.659,8.759-3.3,13.12-4.987.541-.209,1.314-.606,1.384-1,.323-1.828.436-3.684.633-5.622h-35.559c.283,2.081.552,4.054.838,6.147h17.168a4.881,4.881,0,0,1-1.557.838c-4.557,1.678-9.124,3.336-13.663,5.051-.5.188-1.2.7-1.2,1.055.022,1.8.248,3.591.413,5.509H2534.4c-.173,2.732-.336,5.31-.5,7.981-2.565.644-5.09,1.294-7.629,1.9a2.891,2.891,0,0,1-1.206-.08c-1.941-.419-3.859-.934-5.817-1.272-1-.173-1.2-.633-1.237-1.389-.065-1.232-.2-2.461-.315-3.738Z" transform="translate(-19 -19)" fill="#01c38d"/>
  </g>
</svg>
