<svg xmlns="http://www.w3.org/2000/svg" width="56" height="56" viewBox="0 0 56 56">
  <g id="Group_32" data-name="Group 32" transform="translate(-2386.582 -2672.748)">
    <path id="Path_114" data-name="Path 114" d="M2411.428,2732.748q-9.449-2.368-18.9-4.73c-.618-.154-1.247-.271-1.869-.412a1.541,1.541,0,0,1-1.406-1.548c-1.26-12.731-2.573-25.458-3.859-38.187-.284-2.817-.541-5.637-.8-8.507a2.574,2.574,0,0,1,2.75-2.616h50.482a2.573,2.573,0,0,1,2.749,2.62c-.174,1.85-.347,3.7-.533,5.544q-1.352,13.427-2.719,26.853c-.487,4.812-1.006,9.622-1.419,14.439-.091,1.062-.826,1.238-1.69,1.448q-10.341,2.508-20.681,5.022l-.009,0Zm-8.808-39.524h7.385c6.048,0,12.095.02,18.141-.031.55,0,1.519-.4,1.572-.708.306-1.779.4-3.586.562-5.425H2394.8c.642,6.321,1.27,12.5,1.912,18.812h24.515c-.225,2.392-.462,4.616-.628,6.846-.057.771-.343,1.09-1.25,1.385-4.305,1.4-8.572,1.784-12.9.147a.689.689,0,0,0-.172-.038c-1.362-.126-1.839-.762-1.78-1.973a19.66,19.66,0,0,0-.365-3.263h-7.087c.295,3.067.533,6.013.913,8.945.05.379.762.866,1.27,1q6.1,1.575,12.253,3a4.71,4.71,0,0,0,2.12,0c4.114-.959,8.222-1.943,12.3-3.02a2.028,2.028,0,0,0,1.3-1.307c.67-5.942,1.233-11.893,1.844-18.057h-25.811Z" transform="translate(2 -4)" fill="#01c38d"/>
  </g>
</svg>
