<svg id="Component_1_2" data-name="Component 1 – 2" xmlns="http://www.w3.org/2000/svg" width="56.104" height="56.321" viewBox="0 0 56.104 56.321">
  <path id="Path_110" data-name="Path 110" d="M2418.874,2608.734h-40.457a7.822,7.822,0,0,1-7.823-7.823v-40.674a7.823,7.823,0,0,1,7.823-7.824h40.457a7.824,7.824,0,0,1,7.824,7.824v40.674A7.823,7.823,0,0,1,2418.874,2608.734Zm-13.7-6.518a13.925,13.925,0,0,0,10.95.947c2.945-.961,4.958-2.945,5.225-6.176a6.873,6.873,0,0,0-3.983-7.04c-1.624-.855-3.544-1.268-4.958-2.361a4.821,4.821,0,0,1-1.9-3.569c.109-.878,1.933-2.027,3.108-2.178,1.836-.237,3.767.268,5.782.471l.881-3.128c-3.71-1.538-7.29-1.807-10.8-.173-4.967,2.314-5.483,8.233-.994,11.426a31.034,31.034,0,0,0,5.193,2.585c1.923.877,3.454,2.041,2.841,4.423s-2.674,2.753-4.648,2.6a42.543,42.543,0,0,1-5.848-1.275Zm-16.15.857c7.193,2.376,11.785-1.147,11.98-6.476.22-6,.051-12.015.051-18.073h-4.419c0,1.329.015,2.446,0,3.563-.073,4.7.016,9.4-.295,14.082-.211,3.179-1.821,4.189-5,3.817-.562-.066-1.12-.176-1.8-.284Z" transform="translate(-2370.594 -2552.413)" fill="#01c38d"/>
</svg>
